<mxfile host="Electron" agent="Mozilla/5.0 (Windows NT 10.0; Win64; x64) AppleWebKit/537.36 (KHTML, like Gecko) draw.io/26.1.1 Chrome/132.0.6834.210 Electron/34.3.3 Safari/537.36" version="26.1.1">
  <diagram name="Page-1" id="At8U_nRL9ip9RYrHj7Zk">
    <mxGraphModel dx="2100" dy="1242" grid="1" gridSize="10" guides="1" tooltips="1" connect="1" arrows="1" fold="1" page="1" pageScale="1" pageWidth="850" pageHeight="1100" math="0" shadow="0">
      <root>
        <mxCell id="0" />
        <mxCell id="1" parent="0" />
        <mxCell id="XY3nUIzzcHpbf2Jsb4dd-1" value="" style="rounded=0;whiteSpace=wrap;html=1;fillColor=none;dashed=1;strokeColor=light-dark(#666666, #ededed);" parent="1" vertex="1">
          <mxGeometry x="70" y="155" width="160" height="540" as="geometry" />
        </mxCell>
        <mxCell id="XY3nUIzzcHpbf2Jsb4dd-2" value="&lt;b&gt;&lt;font&gt;Source&lt;/font&gt;&lt;/b&gt;" style="text;html=1;align=center;verticalAlign=middle;whiteSpace=wrap;rounded=0;fontSize=17;" parent="1" vertex="1">
          <mxGeometry x="130" y="125" width="60" height="30" as="geometry" />
        </mxCell>
        <mxCell id="XY3nUIzzcHpbf2Jsb4dd-25" style="edgeStyle=orthogonalEdgeStyle;rounded=0;orthogonalLoop=1;jettySize=auto;html=1;entryX=0;entryY=0.5;entryDx=0;entryDy=0;" parent="1" target="XY3nUIzzcHpbf2Jsb4dd-18" edge="1">
          <mxGeometry relative="1" as="geometry">
            <mxPoint x="190" y="335" as="sourcePoint" />
            <Array as="points">
              <mxPoint x="251" y="336" />
            </Array>
          </mxGeometry>
        </mxCell>
        <mxCell id="XY3nUIzzcHpbf2Jsb4dd-31" style="edgeStyle=orthogonalEdgeStyle;rounded=0;orthogonalLoop=1;jettySize=auto;html=1;entryX=0;entryY=0.5;entryDx=0;entryDy=0;" parent="1" source="XY3nUIzzcHpbf2Jsb4dd-3" target="XY3nUIzzcHpbf2Jsb4dd-17" edge="1">
          <mxGeometry relative="1" as="geometry">
            <Array as="points">
              <mxPoint x="250" y="335" />
              <mxPoint x="250" y="285" />
            </Array>
          </mxGeometry>
        </mxCell>
        <mxCell id="XY3nUIzzcHpbf2Jsb4dd-32" style="edgeStyle=orthogonalEdgeStyle;rounded=0;orthogonalLoop=1;jettySize=auto;html=1;entryX=0;entryY=0.5;entryDx=0;entryDy=0;" parent="1" source="XY3nUIzzcHpbf2Jsb4dd-3" target="XY3nUIzzcHpbf2Jsb4dd-19" edge="1">
          <mxGeometry relative="1" as="geometry">
            <Array as="points">
              <mxPoint x="249" y="335" />
              <mxPoint x="249" y="385" />
            </Array>
          </mxGeometry>
        </mxCell>
        <mxCell id="XY3nUIzzcHpbf2Jsb4dd-3" value="" style="image;aspect=fixed;html=1;points=[];align=center;fontSize=12;image=img/lib/azure2/general/Folder_Blank.svg;" parent="1" vertex="1">
          <mxGeometry x="120" y="298.8" width="69.24" height="56.2" as="geometry" />
        </mxCell>
        <mxCell id="XY3nUIzzcHpbf2Jsb4dd-38" style="edgeStyle=orthogonalEdgeStyle;rounded=0;orthogonalLoop=1;jettySize=auto;html=1;entryX=0;entryY=0.5;entryDx=0;entryDy=0;" parent="1" edge="1">
          <mxGeometry relative="1" as="geometry">
            <mxPoint x="200" y="556.65" as="sourcePoint" />
            <mxPoint x="309" y="506" as="targetPoint" />
            <Array as="points">
              <mxPoint x="254" y="556.65" />
              <mxPoint x="254" y="505.65" />
            </Array>
          </mxGeometry>
        </mxCell>
        <mxCell id="XY3nUIzzcHpbf2Jsb4dd-41" style="edgeStyle=orthogonalEdgeStyle;rounded=0;orthogonalLoop=1;jettySize=auto;html=1;entryX=0;entryY=0.5;entryDx=0;entryDy=0;" parent="1" source="XY3nUIzzcHpbf2Jsb4dd-4" target="XY3nUIzzcHpbf2Jsb4dd-35" edge="1">
          <mxGeometry relative="1" as="geometry" />
        </mxCell>
        <mxCell id="XY3nUIzzcHpbf2Jsb4dd-43" style="edgeStyle=orthogonalEdgeStyle;rounded=0;orthogonalLoop=1;jettySize=auto;html=1;entryX=0;entryY=0.5;entryDx=0;entryDy=0;" parent="1" source="XY3nUIzzcHpbf2Jsb4dd-4" target="XY3nUIzzcHpbf2Jsb4dd-33" edge="1">
          <mxGeometry relative="1" as="geometry" />
        </mxCell>
        <mxCell id="XY3nUIzzcHpbf2Jsb4dd-4" value="" style="image;aspect=fixed;html=1;points=[];align=center;fontSize=12;image=img/lib/azure2/general/Folder_Blank.svg;" parent="1" vertex="1">
          <mxGeometry x="120" y="524.35" width="80" height="64.94" as="geometry" />
        </mxCell>
        <mxCell id="XY3nUIzzcHpbf2Jsb4dd-9" value="&lt;font style=&quot;font-size: 16px;&quot;&gt;&lt;b style=&quot;&quot;&gt;CRM&lt;/b&gt;&lt;/font&gt;" style="text;html=1;align=center;verticalAlign=middle;whiteSpace=wrap;rounded=0;" parent="1" vertex="1">
          <mxGeometry x="120" y="355" width="60" height="30" as="geometry" />
        </mxCell>
        <mxCell id="XY3nUIzzcHpbf2Jsb4dd-11" value="&lt;div&gt;&lt;b style=&quot;font-size: 16px;&quot;&gt;ERP&lt;/b&gt;&lt;/div&gt;" style="text;html=1;align=center;verticalAlign=middle;whiteSpace=wrap;rounded=0;" parent="1" vertex="1">
          <mxGeometry x="129.24" y="585" width="60" height="30" as="geometry" />
        </mxCell>
        <mxCell id="XY3nUIzzcHpbf2Jsb4dd-12" value="" style="rounded=1;whiteSpace=wrap;html=1;fillColor=#ffe6cc;dashed=1;strokeColor=#d79b00;fillStyle=hatch;" parent="1" vertex="1">
          <mxGeometry x="300" y="215" width="180" height="480" as="geometry" />
        </mxCell>
        <mxCell id="XY3nUIzzcHpbf2Jsb4dd-16" value="&lt;b&gt;&lt;font style=&quot;font-size: 16px;&quot;&gt;Bronze Layer&lt;/font&gt;&lt;/b&gt;" style="rounded=1;whiteSpace=wrap;html=1;fillColor=#ffe6cc;strokeColor=#d79b00;" parent="1" vertex="1">
          <mxGeometry x="310" y="155" width="170" height="50" as="geometry" />
        </mxCell>
        <mxCell id="z0gcfVrqy1wfgmdl43jf-9" style="edgeStyle=orthogonalEdgeStyle;rounded=0;orthogonalLoop=1;jettySize=auto;html=1;exitX=1;exitY=0.5;exitDx=0;exitDy=0;entryX=0;entryY=0.5;entryDx=0;entryDy=0;" parent="1" source="XY3nUIzzcHpbf2Jsb4dd-17" target="z0gcfVrqy1wfgmdl43jf-3" edge="1">
          <mxGeometry relative="1" as="geometry" />
        </mxCell>
        <mxCell id="XY3nUIzzcHpbf2Jsb4dd-17" value="&lt;font style=&quot;font-size: 16px;&quot;&gt;&lt;b&gt;crm_sales_details&lt;/b&gt;&lt;/font&gt;" style="rounded=1;whiteSpace=wrap;html=1;fillColor=#ffe6cc;strokeColor=#d79b00;" parent="1" vertex="1">
          <mxGeometry x="310" y="265" width="159" height="40" as="geometry" />
        </mxCell>
        <mxCell id="z0gcfVrqy1wfgmdl43jf-10" style="edgeStyle=orthogonalEdgeStyle;rounded=0;orthogonalLoop=1;jettySize=auto;html=1;" parent="1" source="XY3nUIzzcHpbf2Jsb4dd-18" target="z0gcfVrqy1wfgmdl43jf-4" edge="1">
          <mxGeometry relative="1" as="geometry" />
        </mxCell>
        <mxCell id="XY3nUIzzcHpbf2Jsb4dd-18" value="&lt;span style=&quot;font-size: 16px;&quot;&gt;&lt;b&gt;crm_cust_info&lt;/b&gt;&lt;/span&gt;" style="rounded=1;whiteSpace=wrap;html=1;fillColor=#ffe6cc;strokeColor=#d79b00;" parent="1" vertex="1">
          <mxGeometry x="311" y="315.65" width="160" height="40" as="geometry" />
        </mxCell>
        <mxCell id="z0gcfVrqy1wfgmdl43jf-11" style="edgeStyle=orthogonalEdgeStyle;rounded=0;orthogonalLoop=1;jettySize=auto;html=1;exitX=1;exitY=0.5;exitDx=0;exitDy=0;entryX=0;entryY=0.5;entryDx=0;entryDy=0;" parent="1" source="XY3nUIzzcHpbf2Jsb4dd-19" target="z0gcfVrqy1wfgmdl43jf-5" edge="1">
          <mxGeometry relative="1" as="geometry" />
        </mxCell>
        <mxCell id="XY3nUIzzcHpbf2Jsb4dd-19" value="&lt;span style=&quot;font-size: 16px;&quot;&gt;&lt;b&gt;crm_prd_info&lt;/b&gt;&lt;/span&gt;" style="rounded=1;whiteSpace=wrap;html=1;fillColor=#ffe6cc;strokeColor=#d79b00;" parent="1" vertex="1">
          <mxGeometry x="309" y="365" width="160" height="40" as="geometry" />
        </mxCell>
        <mxCell id="z0gcfVrqy1wfgmdl43jf-14" style="edgeStyle=orthogonalEdgeStyle;rounded=0;orthogonalLoop=1;jettySize=auto;html=1;exitX=1;exitY=0.5;exitDx=0;exitDy=0;" parent="1" source="XY3nUIzzcHpbf2Jsb4dd-33" target="z0gcfVrqy1wfgmdl43jf-6" edge="1">
          <mxGeometry relative="1" as="geometry" />
        </mxCell>
        <mxCell id="XY3nUIzzcHpbf2Jsb4dd-33" value="&lt;span style=&quot;font-size: 16px;&quot;&gt;&lt;b&gt;erp_px_cat_g1v2&lt;/b&gt;&lt;/span&gt;" style="rounded=1;whiteSpace=wrap;html=1;fillColor=#ffe6cc;strokeColor=#d79b00;" parent="1" vertex="1">
          <mxGeometry x="310.5" y="595" width="159" height="40" as="geometry" />
        </mxCell>
        <mxCell id="z0gcfVrqy1wfgmdl43jf-12" style="edgeStyle=orthogonalEdgeStyle;rounded=0;orthogonalLoop=1;jettySize=auto;html=1;exitX=1;exitY=0.5;exitDx=0;exitDy=0;entryX=0;entryY=0.5;entryDx=0;entryDy=0;" parent="1" source="XY3nUIzzcHpbf2Jsb4dd-34" target="z0gcfVrqy1wfgmdl43jf-7" edge="1">
          <mxGeometry relative="1" as="geometry" />
        </mxCell>
        <mxCell id="XY3nUIzzcHpbf2Jsb4dd-34" value="&lt;span style=&quot;font-size: 16px;&quot;&gt;&lt;b&gt;erp_cust_az12&lt;/b&gt;&lt;/span&gt;" style="rounded=1;whiteSpace=wrap;html=1;fillColor=#ffe6cc;strokeColor=#d79b00;" parent="1" vertex="1">
          <mxGeometry x="309" y="484.35" width="159" height="40" as="geometry" />
        </mxCell>
        <mxCell id="z0gcfVrqy1wfgmdl43jf-13" style="edgeStyle=orthogonalEdgeStyle;rounded=0;orthogonalLoop=1;jettySize=auto;html=1;exitX=1;exitY=0.5;exitDx=0;exitDy=0;" parent="1" source="XY3nUIzzcHpbf2Jsb4dd-35" target="z0gcfVrqy1wfgmdl43jf-8" edge="1">
          <mxGeometry relative="1" as="geometry" />
        </mxCell>
        <mxCell id="XY3nUIzzcHpbf2Jsb4dd-35" value="&lt;font style=&quot;font-size: 16px;&quot;&gt;&lt;b&gt;erp_loc_a101&lt;/b&gt;&lt;/font&gt;" style="rounded=1;whiteSpace=wrap;html=1;fillColor=#ffe6cc;strokeColor=#d79b00;" parent="1" vertex="1">
          <mxGeometry x="309" y="536.82" width="159" height="40" as="geometry" />
        </mxCell>
        <mxCell id="z0gcfVrqy1wfgmdl43jf-1" value="" style="rounded=1;whiteSpace=wrap;html=1;fillColor=#f5f5f5;dashed=1;strokeColor=#666666;fillStyle=hatch;fontColor=#333333;" parent="1" vertex="1">
          <mxGeometry x="520" y="215" width="180" height="480" as="geometry" />
        </mxCell>
        <mxCell id="z0gcfVrqy1wfgmdl43jf-2" value="&lt;b&gt;&lt;font style=&quot;font-size: 16px;&quot;&gt;Silver Layer&lt;/font&gt;&lt;/b&gt;" style="rounded=1;whiteSpace=wrap;html=1;fillColor=#f5f5f5;strokeColor=#666666;fontColor=#333333;" parent="1" vertex="1">
          <mxGeometry x="530" y="155" width="170" height="50" as="geometry" />
        </mxCell>
        <mxCell id="z0gcfVrqy1wfgmdl43jf-23" style="edgeStyle=orthogonalEdgeStyle;rounded=0;orthogonalLoop=1;jettySize=auto;html=1;entryX=0;entryY=0.5;entryDx=0;entryDy=0;" parent="1" source="z0gcfVrqy1wfgmdl43jf-3" target="z0gcfVrqy1wfgmdl43jf-17" edge="1">
          <mxGeometry relative="1" as="geometry" />
        </mxCell>
        <mxCell id="z0gcfVrqy1wfgmdl43jf-3" value="&lt;b style=&quot;color: rgb(0, 0, 0); font-size: 16px;&quot;&gt;crm_sales_details&lt;/b&gt;" style="rounded=1;whiteSpace=wrap;html=1;fillColor=#f5f5f5;strokeColor=#666666;fontColor=#333333;" parent="1" vertex="1">
          <mxGeometry x="530" y="265" width="150" height="40" as="geometry" />
        </mxCell>
        <mxCell id="z0gcfVrqy1wfgmdl43jf-4" value="&lt;b style=&quot;color: rgb(0, 0, 0); font-size: 16px;&quot;&gt;crm_cust_info&lt;/b&gt;" style="rounded=1;whiteSpace=wrap;html=1;fillColor=#f5f5f5;strokeColor=#666666;fontColor=#333333;" parent="1" vertex="1">
          <mxGeometry x="530.5" y="315.65" width="160" height="40" as="geometry" />
        </mxCell>
        <mxCell id="z0gcfVrqy1wfgmdl43jf-5" value="&lt;b style=&quot;color: rgb(0, 0, 0); font-size: 16px;&quot;&gt;crm_prd_info&lt;/b&gt;" style="rounded=1;whiteSpace=wrap;html=1;fillColor=#f5f5f5;strokeColor=#666666;fontColor=#333333;" parent="1" vertex="1">
          <mxGeometry x="529" y="365" width="160" height="40" as="geometry" />
        </mxCell>
        <mxCell id="z0gcfVrqy1wfgmdl43jf-6" value="&lt;b style=&quot;color: rgb(0, 0, 0); font-size: 16px;&quot;&gt;erp_px_cat_g1v2&lt;/b&gt;" style="rounded=1;whiteSpace=wrap;html=1;fillColor=#f5f5f5;strokeColor=#666666;fontColor=#333333;" parent="1" vertex="1">
          <mxGeometry x="530.5" y="595" width="159" height="40" as="geometry" />
        </mxCell>
        <mxCell id="z0gcfVrqy1wfgmdl43jf-7" value="&lt;b style=&quot;color: rgb(0, 0, 0); font-size: 16px;&quot;&gt;erp_cust_az12&lt;/b&gt;" style="rounded=1;whiteSpace=wrap;html=1;fillColor=#f5f5f5;strokeColor=#666666;fontColor=#333333;" parent="1" vertex="1">
          <mxGeometry x="529" y="484.35" width="159" height="40" as="geometry" />
        </mxCell>
        <mxCell id="z0gcfVrqy1wfgmdl43jf-8" value="&lt;b style=&quot;color: rgb(0, 0, 0); font-size: 16px;&quot;&gt;erp_loc_a101&lt;/b&gt;" style="rounded=1;whiteSpace=wrap;html=1;fillColor=#f5f5f5;strokeColor=#666666;fontColor=#333333;" parent="1" vertex="1">
          <mxGeometry x="529" y="536.82" width="159" height="40" as="geometry" />
        </mxCell>
        <mxCell id="z0gcfVrqy1wfgmdl43jf-15" value="" style="rounded=1;whiteSpace=wrap;html=1;fillColor=#fff2cc;dashed=1;strokeColor=#d6b656;fillStyle=hatch;" parent="1" vertex="1">
          <mxGeometry x="760" y="214" width="180" height="480" as="geometry" />
        </mxCell>
        <mxCell id="z0gcfVrqy1wfgmdl43jf-16" value="&lt;b&gt;&lt;font style=&quot;font-size: 16px;&quot;&gt;Silver Layer&lt;/font&gt;&lt;/b&gt;" style="rounded=1;whiteSpace=wrap;html=1;fillColor=#fff2cc;strokeColor=#d6b656;" parent="1" vertex="1">
          <mxGeometry x="770" y="154" width="170" height="50" as="geometry" />
        </mxCell>
        <mxCell id="z0gcfVrqy1wfgmdl43jf-17" value="&lt;span style=&quot;font-size: 16px;&quot;&gt;&lt;b&gt;fact_sales&lt;/b&gt;&lt;/span&gt;" style="rounded=1;whiteSpace=wrap;html=1;fillColor=#fff2cc;strokeColor=#d6b656;" parent="1" vertex="1">
          <mxGeometry x="775.5" y="265" width="159" height="40" as="geometry" />
        </mxCell>
        <mxCell id="z0gcfVrqy1wfgmdl43jf-18" value="&lt;span style=&quot;font-size: 16px;&quot;&gt;&lt;b&gt;dim_customers&lt;/b&gt;&lt;/span&gt;" style="rounded=1;whiteSpace=wrap;html=1;fillColor=#fff2cc;strokeColor=#d6b656;" parent="1" vertex="1">
          <mxGeometry x="769" y="405" width="160" height="40" as="geometry" />
        </mxCell>
        <mxCell id="z0gcfVrqy1wfgmdl43jf-19" value="&lt;span style=&quot;font-size: 16px;&quot;&gt;&lt;b&gt;dim_products&lt;/b&gt;&lt;/span&gt;" style="rounded=1;whiteSpace=wrap;html=1;fillColor=#fff2cc;strokeColor=#d6b656;" parent="1" vertex="1">
          <mxGeometry x="769" y="496.82" width="160" height="40" as="geometry" />
        </mxCell>
        <mxCell id="z0gcfVrqy1wfgmdl43jf-30" value="" style="endArrow=classic;html=1;rounded=0;" parent="1" edge="1">
          <mxGeometry width="50" height="50" relative="1" as="geometry">
            <mxPoint x="690" y="335" as="sourcePoint" />
            <mxPoint x="765" y="435" as="targetPoint" />
            <Array as="points">
              <mxPoint x="690" y="335" />
            </Array>
          </mxGeometry>
        </mxCell>
        <mxCell id="z0gcfVrqy1wfgmdl43jf-31" value="" style="endArrow=classic;html=1;rounded=0;entryX=0;entryY=0.5;entryDx=0;entryDy=0;" parent="1" target="z0gcfVrqy1wfgmdl43jf-19" edge="1">
          <mxGeometry width="50" height="50" relative="1" as="geometry">
            <mxPoint x="690.5" y="392.35" as="sourcePoint" />
            <mxPoint x="765.5" y="484.35" as="targetPoint" />
            <Array as="points">
              <mxPoint x="690.5" y="392.35" />
            </Array>
          </mxGeometry>
        </mxCell>
        <mxCell id="z0gcfVrqy1wfgmdl43jf-33" value="" style="endArrow=classic;html=1;rounded=0;exitX=0.987;exitY=0.855;exitDx=0;exitDy=0;exitPerimeter=0;" parent="1" edge="1">
          <mxGeometry width="50" height="50" relative="1" as="geometry">
            <mxPoint x="690.5000000000001" y="625.4000000000001" as="sourcePoint" />
            <mxPoint x="770" y="515" as="targetPoint" />
          </mxGeometry>
        </mxCell>
        <mxCell id="z0gcfVrqy1wfgmdl43jf-38" value="" style="endArrow=classic;html=1;rounded=0;" parent="1" edge="1">
          <mxGeometry width="50" height="50" relative="1" as="geometry">
            <mxPoint x="690" y="515" as="sourcePoint" />
            <mxPoint x="770" y="435" as="targetPoint" />
          </mxGeometry>
        </mxCell>
        <mxCell id="z0gcfVrqy1wfgmdl43jf-39" value="" style="endArrow=classic;html=1;rounded=0;entryX=0.056;entryY=0.46;entryDx=0;entryDy=0;entryPerimeter=0;" parent="1" target="z0gcfVrqy1wfgmdl43jf-15" edge="1">
          <mxGeometry width="50" height="50" relative="1" as="geometry">
            <mxPoint x="688" y="555" as="sourcePoint" />
            <mxPoint x="738" y="505" as="targetPoint" />
          </mxGeometry>
        </mxCell>
        <mxCell id="z0gcfVrqy1wfgmdl43jf-40" value="&lt;font style=&quot;&quot;&gt;&lt;b style=&quot;&quot;&gt;&lt;span style=&quot;font-size: 33px;&quot;&gt;Data Flow &lt;/span&gt;&lt;font style=&quot;font-size: 24px;&quot;&gt;(data lineage)&lt;/font&gt;&lt;/b&gt;&lt;/font&gt;" style="text;html=1;align=center;verticalAlign=middle;whiteSpace=wrap;rounded=0;" parent="1" vertex="1">
          <mxGeometry x="50" y="30" width="525" height="30" as="geometry" />
        </mxCell>
      </root>
    </mxGraphModel>
  </diagram>
</mxfile>
